HIERARCHY
ROOT Hips
{
	OFFSET -3.958830 18.904000 13.208200
	CHANNELS 6 Xposition Yposition Zposition Zrotation Yrotation Xrotation 
	JOINT LHipJoint
	{
		OFFSET 0.000000 0.000000 0.000000
		CHANNELS 3 Zrotation Yrotation Xrotation
		JOINT LeftUpLeg
		{
			OFFSET 1.800000 -1.400000 0.085000
			CHANNELS 3 Zrotation Yrotation Xrotation
			JOINT LeftLeg
			{
				OFFSET 2.215000 -6.000000 0.000000
				CHANNELS 3 Zrotation Yrotation Xrotation
				JOINT LeftFoot
				{
					OFFSET 2.500000 -6.900000 0.000000
					CHANNELS 3 Zrotation Yrotation Xrotation
					JOINT LeftToeBase
					{
						OFFSET 0.200000 -0.500000 1.950000
						CHANNELS 3 Zrotation Yrotation Xrotation
						End Site
						{
							OFFSET 0.000000 0.000000 0.000000
						}
					}
				}
			}
		}
	}
	JOINT RHipJoint
	{
		OFFSET 0.000000 0.000000 0.000000
		CHANNELS 3 Zrotation Yrotation Xrotation
		JOINT RightUpLeg
		{
			OFFSET -1.800000 -1.400000 0.085000
			CHANNELS 3 Zrotation Yrotation Xrotation
			JOINT RightLeg
			{
				OFFSET -2.215000 -6.000000 0.000000
				CHANNELS 3 Zrotation Yrotation Xrotation
				JOINT RightFoot
				{
					OFFSET -2.500000 -6.900000 0.000000
					CHANNELS 3 Zrotation Yrotation Xrotation
					JOINT RightToeBase
					{
						OFFSET -0.200000 -0.500000 1.950000
						CHANNELS 3 Zrotation Yrotation Xrotation
						End Site
						{
							OFFSET 0.000000 0.000000 0.000000
						}
					}
				}
			}
		}
	}
	JOINT LowerBack
	{
		OFFSET 0.000000 0.000000 0.000000
		CHANNELS 3 Zrotation Yrotation Xrotation
		JOINT Spine
		{
			OFFSET -0.087000 1.940000 -0.288900
			CHANNELS 3 Zrotation Yrotation Xrotation
			JOINT Spine1
			{
				OFFSET 0.000000 1.950000 0.060000
				CHANNELS 3 Zrotation Yrotation Xrotation
				JOINT Neck
				{
					OFFSET 0.000000 0.000000 0.000000
					CHANNELS 3 Zrotation Yrotation Xrotation
					JOINT Neck1
					{
						OFFSET 0.000000 1.600000 0.340000
						CHANNELS 3 Zrotation Yrotation Xrotation
						JOINT Head
						{
							OFFSET 0.000000 1.667000 -0.240000
							CHANNELS 3 Zrotation Yrotation Xrotation
							End Site
							{
								OFFSET 0.000000 0.000000 0.000000
							}
						}
					}
				}
				JOINT LeftShoulder
				{
					OFFSET 0.000000 0.000000 0.000000
					CHANNELS 3 Zrotation Yrotation Xrotation
					JOINT LeftArm
					{
						OFFSET 2.700000 1.550000 -0.730000
						CHANNELS 3 Zrotation Yrotation Xrotation
						JOINT LeftForeArm
						{
							OFFSET 5.450000 0.000000 0.000000
							CHANNELS 3 Zrotation Yrotation Xrotation
							JOINT LeftHand
							{
								OFFSET 3.450000 0.000000 0.000000
								CHANNELS 3 Zrotation Yrotation Xrotation
								JOINT LeftHandIndex1
								{
									OFFSET 0.750000 0.000000 0.000000
									CHANNELS 3 Zrotation Yrotation Xrotation
									End Site
									{
										OFFSET 0.000000 0.000000 0.000000
									}
								}
							}
						}
					}
				}
				JOINT RightShoulder
				{
					OFFSET 0.000000 0.000000 0.000000
					CHANNELS 3 Zrotation Yrotation Xrotation
					JOINT RightArm
					{
						OFFSET -2.700000 1.550000 -0.730000
						CHANNELS 3 Zrotation Yrotation Xrotation
						JOINT RightForeArm
						{
							OFFSET -5.450000 0.000000 0.000000
							CHANNELS 3 Zrotation Yrotation Xrotation
							JOINT RightHand
							{
								OFFSET -3.450000 0.000000 0.000000
								CHANNELS 3 Zrotation Yrotation Xrotation
								JOINT RightHandIndex1
								{
									OFFSET -0.750000 0.000000 0.000000
									CHANNELS 3 Zrotation Yrotation Xrotation
									End Site
									{
										OFFSET 0.000000 0.000000 0.000000
									}
								}
							}
						}
					}
				}
			}
		}
	}
}
MOTION
Frames: 6
Frame Time: 0.016667
0.648860 18.114820 0.542330 2.822134 11.727198 5.063693 -15.284228 13.348103 3.138548 -5.834501 2.423419 7.851015 -7.992931 6.983686 7.935814 0.490481 5.950808 3.119563 -0.906170 -1.350990 -0.839610 18.565544 -8.744661 3.261930 12.174979 3.748178 -30.990783 5.358454 -2.748727 1.268237 0.320659 -1.539036 3.857123 -0.905980 1.416110 0.569760 -3.993566 -4.836910 -7.291624 26.899149 -12.874391 3.307975 -12.146604 -12.381392 3.168032 4.357161 -7.082562 -12.499902 -22.591983 7.682336 40.473996 -2.785280 -0.087300 26.217010 -3.234231 -2.930225 4.008413 -67.448748 -7.201000 -2.252895 -21.798013 -0.071550 -0.687906 -4.231929 2.793048 0.422900 0.599080 -0.247730 0.346700 -5.868762 2.512445 8.797852 79.238167 -17.871962 -25.008661 14.619591 -1.398617 -1.318251 2.822203 -0.555595 -0.460970 0.288020 0.586350 0.427390 
0.689160 18.098200 0.590880 2.594916 11.981654 5.067987 -15.313976 13.454572 3.139346 -5.307606 2.372299 8.225225 -7.664495 6.927868 7.563875 0.509024 5.948692 3.103046 -0.927630 -1.357050 -0.907240 18.536516 -8.639000 3.278838 12.454007 3.835740 -30.325595 5.301733 -2.675296 0.511371 0.291749 -1.508276 3.886343 -0.932260 1.421400 0.573480 -3.909070 -5.179241 -7.314910 28.054937 -13.265229 3.390846 -12.889431 -12.602855 1.897027 4.945799 -7.488606 -13.459243 -24.643409 8.817263 40.823115 -1.227730 -1.027880 26.413700 -1.843501 -2.644715 4.633857 -68.744242 -6.507000 -2.580792 -21.785893 -1.352858 -0.597703 -4.195619 2.764287 0.462810 0.574110 -0.215360 0.356840 -8.098072 2.450013 9.446641 81.517046 -18.601386 -26.949358 14.882099 1.870103 -1.367943 2.754881 -0.487048 -0.444780 0.307750 0.621010 0.447760 
0.761390 18.047470 0.701610 1.687417 11.100626 4.888736 -15.361087 13.601429 3.132617 -3.861274 1.850408 8.559475 -8.559419 7.201303 7.956732 0.546521 6.065908 3.001455 -0.887270 -1.297100 -0.884720 18.488915 -8.462596 3.357445 13.722133 4.154639 -28.754601 4.923169 -2.520387 -0.780186 0.197835 -1.418732 3.900581 -0.944090 1.329660 0.589240 -3.754207 -5.674658 -7.396092 30.323017 -13.452437 3.652325 -13.568106 -12.346879 0.284852 6.215551 -7.914482 -15.090843 -28.143921 10.511223 42.274648 0.011540 -1.919920 24.207920 -1.299321 -2.786690 5.434763 -69.714987 -5.080078 -3.713511 -21.943951 -4.773078 -0.474235 -4.103716 2.716305 0.555660 0.480240 -0.099860 0.333210 -10.528267 3.165511 10.827520 83.105732 -20.299970 -29.477908 17.812007 4.699496 -1.606361 2.670558 -0.381554 -0.385070 0.325780 0.640030 0.441960 
0.813130 17.956180 0.841150 2.333091 9.393046 5.826129 -15.464799 13.929626 3.245387 -3.703964 1.452440 7.691954 -9.985510 7.603624 9.652138 0.579931 6.148188 2.898502 -0.753940 -1.153690 -0.790230 18.349704 -8.243664 3.450857 14.114236 4.508179 -29.434167 4.718754 -2.553803 0.262282 0.103258 -1.216982 3.896058 -0.911140 1.171890 0.629170 -3.402780 -6.589641 -7.593070 29.653179 -13.193407 5.281016 -11.871056 -11.332887 -3.798619 7.565435 -8.767245 -16.018169 -32.214435 12.428795 41.338546 0.982280 -1.769450 19.979460 -1.187404 0.114285 5.217553 -71.420799 -1.812441 -4.927572 -22.276406 -6.074549 -0.558630 -3.961033 2.737820 0.670250 0.339830 0.049130 0.337000 -12.192287 2.032339 11.545129 81.264939 -23.019198 -29.484805 21.647099 4.031802 -1.883543 2.687597 -0.328332 -0.302890 0.278080 0.582540 0.428800 
0.867860 17.888400 0.993150 2.603210 7.585651 7.335949 -15.522487 14.159674 3.290601 -3.402834 0.837187 5.374715 -11.929875 8.282907 12.624120 0.630305 6.306964 2.813981 -0.741080 -1.133470 -0.807670 18.248802 -8.102768 3.623267 14.967297 5.226800 -31.056245 3.823529 -2.578026 1.954334 0.111484 -1.023990 3.952289 -0.926830 1.129610 0.621540 -3.164961 -7.170390 -7.756356 29.819634 -12.904662 7.632368 -10.899216 -9.660101 -9.830133 8.341458 -9.900013 -16.009565 -35.197946 12.857388 38.518377 2.785700 -3.009300 17.042670 0.295074 5.122294 4.028597 -73.879486 1.508079 -4.619664 -21.859238 -2.498443 -0.754472 -3.944596 2.684104 0.701660 0.271680 0.079780 0.329480 -13.980857 -0.757485 11.533914 78.811247 -26.089889 -27.968931 22.711657 0.876644 -2.073363 2.781655 -0.199679 -0.271030 0.267700 0.586600 0.442420 
0.897330 17.860290 1.134900 3.508643 5.160296 8.407563 -15.540637 14.296898 3.363291 -3.547332 -0.294310 2.095103 -13.858464 9.443187 18.359562 0.749099 6.694788 2.659625 -0.679610 -1.046000 -0.768580 18.172755 -8.097069 3.756887 15.098505 5.695965 -32.513902 2.675342 -2.637628 4.395193 0.098638 -0.904332 3.989287 -0.904690 1.058100 0.604240 -3.006759 -7.401410 -7.940215 27.867948 -12.629417 10.720673 -8.906694 -8.163816 -14.445649 8.381000 -10.785224 -15.476051 -36.533207 12.914829 36.679097 2.770140 -2.748880 14.124840 0.331091 9.754371 3.139862 -75.275342 5.335618 -6.396073 -18.670659 -4.982530 -0.781169 -3.912735 2.620049 0.709290 0.206740 0.125980 0.348290 -13.396723 -3.337658 10.464261 75.285713 -25.816454 -24.569946 21.191566 -2.331105 -1.863969 2.904957 -0.191850 -0.232070 0.252220 0.524020 0.453050 
